<?xml version="1.0" encoding="utf-8"?>
<!-- Generator: Adobe Illustrator 16.0.0, SVG Export Plug-In . SVG Version: 6.00 Build 0)  -->
<!DOCTYPE svg PUBLIC "-//W3C//DTD SVG 1.0//EN" "http://www.w3.org/TR/2001/REC-SVG-20010904/DTD/svg10.dtd">
<svg version="1.0" id="Layer_1" xmlns="http://www.w3.org/2000/svg" xmlns:xlink="http://www.w3.org/1999/xlink" x="0px" y="0px"
	 width="609.25px" height="612px" viewBox="0 0 609.25 612" enable-background="new 0 0 609.25 612" xml:space="preserve">
<g>
	<path fill="#075DAA" d="M596.459,305.996c0,161.181-130.662,291.848-291.834,291.848c-161.18,0-291.834-130.667-291.834-291.848
		c0-161.18,130.654-291.84,291.834-291.84C465.797,14.156,596.459,144.816,596.459,305.996z"/>
	<path fill="#FFFFFF" d="M325.89,147.575H166.644l33.221,57.426l-30.394,225.774c-1.431,9.162,3.356,13.082,10.529,13.082h104.691
		l-5.823,42.444c0,0,89.864-36.385,122.811-73.199c0,0,0.696-0.919,1.668-2.569c11.642-12.249,17.314-26.688,19.172-41.188
		l18.651-140.294c0.486-3.051,1.44-11.759,1.44-13.95C442.611,180.246,409.115,147.575,325.89,147.575z M279.011,206.394h43.049
		c24.407,0,39.698,6.971,39.698,23.955c0,1.324-0.469,8.277-0.954,10.47l-15.781,115.891c-2.871,20.045-22.963,28.339-46.402,28.339
		h-44.009L279.011,206.394z"/>
</g>
</svg>
